<?xml version="1.0" encoding="utf-8"?>
<!-- Generator: Adobe Illustrator 16.0.4, SVG Export Plug-In . SVG Version: 6.00 Build 0)  -->
<!DOCTYPE svg PUBLIC "-//W3C//DTD SVG 1.1//EN" "http://www.w3.org/Graphics/SVG/1.1/DTD/svg11.dtd">
<svg version="1.1" id="Layer_1" xmlns="http://www.w3.org/2000/svg" xmlns:xlink="http://www.w3.org/1999/xlink" x="0px" y="0px"
	 width="87.506px" height="100px" viewBox="0 0 87.506 100" enable-background="new 0 0 87.506 100" xml:space="preserve">
<path stroke="#000000" stroke-width="6" stroke-miterlimit="10" d="M42.251,32.875c-2.347,0-4.251,1.478-4.251,2.562v18.317
	c0,1.084,1.904,2.621,4.251,2.621c2.348,0,4.252-1.537,4.252-2.621V35.437C46.503,34.353,44.599,32.875,42.251,32.875z"/>
<path stroke="#000000" stroke-width="10" stroke-miterlimit="10" d="M81.09,26.879c0,0-1.221-3.661-3.661-6.102
	c-2.441-2.44-6.101-3.661-6.101-3.661l-7.756,7.756c-4.139-2.831-8.878-4.838-13.983-5.803V8.061c0,0-3.451-1.725-6.903-1.725
	c-3.452,0-6.904,1.725-6.904,1.725V19.07C18.612,22.317,5.58,37.421,5.58,55.521c0,20.463,16.646,37.107,37.105,37.107
	c20.461,0,37.105-16.645,37.105-37.107c0-7.74-2.387-14.932-6.456-20.887L81.09,26.879z M42.686,87.45
	c-17.605,0-31.928-14.322-31.928-31.93c0-17.604,14.323-31.927,31.928-31.927c17.605,0,31.929,14.323,31.929,31.927
	C74.614,73.128,60.291,87.45,42.686,87.45z"/>
</svg>
