<svg xmlns="http://www.w3.org/2000/svg" xmlns:xlink="http://www.w3.org/1999/xlink" version="1.1" x="0px" y="0px" width="100px" height="100px" viewBox="0 0 100 100" enable-background="new 0 0 100 100" xml:space="preserve">
<g id="Captions">
</g>
<g id="Your_Icon">
	<path fill="#000000" d="M93.079,40.25c-2.53-2.529-5.893-3.922-9.468-3.922H62.674V15.389C62.671,8.013,56.667,2.01,49.285,2   c-3.58,0-6.943,1.397-9.473,3.928c-2.529,2.535-3.919,5.9-3.916,9.461l-0.003,20.939l-20.925-0.005   C7.591,36.328,1.592,42.328,1.587,49.704c-0.004,3.573,1.385,6.938,3.912,9.469c2.528,2.535,5.892,3.932,9.476,3.932h20.919v20.935   c0.01,7.369,6.01,13.371,13.377,13.378h0.023c7.381-0.007,13.387-6.013,13.384-13.39l-0.004-20.923h20.945   C90.991,63.1,96.991,57.099,97,49.716C97,46.139,95.604,42.775,93.079,40.25z"/>
</g>
</svg>